<svg width="1773" height="1108" xmlns="http://www.w3.org/2000/svg" xmlns:xlink="http://www.w3.org/1999/xlink" overflow="hidden"><defs><clipPath id="clip0"><rect x="1627" y="-4" width="1773" height="1108"/></clipPath><clipPath id="clip1"><rect x="1631" y="0" width="1765" height="1100"/></clipPath><clipPath id="clip2"><rect x="1631" y="0" width="1765" height="1100"/></clipPath><clipPath id="clip3"><rect x="1741" y="169" width="1267" height="828"/></clipPath><clipPath id="clip4"><rect x="1631" y="0" width="1765" height="1100"/></clipPath><clipPath id="clip5"><rect x="1741" y="169" width="1267" height="828"/></clipPath><clipPath id="clip6"><rect x="1631" y="0" width="1765" height="1100"/></clipPath><clipPath id="clip7"><rect x="1631" y="0" width="1765" height="1100"/></clipPath><clipPath id="clip8"><rect x="1631" y="0" width="1765" height="1100"/></clipPath><clipPath id="clip9"><rect x="1631" y="0" width="1765" height="1100"/></clipPath><clipPath id="clip10"><rect x="1631" y="0" width="1765" height="1100"/></clipPath><clipPath id="clip11"><rect x="1631" y="0" width="1765" height="1100"/></clipPath><clipPath id="clip12"><rect x="1631" y="0" width="1765" height="1100"/></clipPath><clipPath id="clip13"><rect x="1631" y="0" width="1765" height="1100"/></clipPath><clipPath id="clip14"><rect x="1631" y="0" width="1765" height="1100"/></clipPath><clipPath id="clip15"><rect x="1631" y="0" width="1765" height="1100"/></clipPath><clipPath id="clip16"><rect x="1631" y="0" width="1765" height="1100"/></clipPath><clipPath id="clip17"><rect x="1631" y="0" width="1765" height="1100"/></clipPath><clipPath id="clip18"><rect x="1631" y="0" width="1765" height="1100"/></clipPath><clipPath id="clip19"><rect x="1631" y="0" width="1765" height="1100"/></clipPath><clipPath id="clip20"><rect x="1631" y="0" width="1765" height="1100"/></clipPath><clipPath id="clip21"><rect x="1631" y="0" width="1765" height="1100"/></clipPath><clipPath id="clip22"><rect x="1631" y="0" width="1765" height="1100"/></clipPath><clipPath id="clip23"><rect x="1631" y="0" width="1765" height="1100"/></clipPath><clipPath id="clip24"><rect x="1631" y="0" width="1765" height="1100"/></clipPath><clipPath id="clip25"><rect x="1631" y="0" width="1765" height="1100"/></clipPath><clipPath id="clip26"><rect x="1631" y="0" width="1765" height="1100"/></clipPath><clipPath id="clip27"><rect x="1631" y="0" width="1765" height="1100"/></clipPath><clipPath id="clip28"><rect x="1631" y="0" width="1765" height="1100"/></clipPath><clipPath id="clip29"><rect x="1631" y="0" width="1765" height="1100"/></clipPath><clipPath id="clip30"><rect x="1631" y="0" width="1765" height="1100"/></clipPath><clipPath id="clip31"><rect x="1631" y="0" width="1765" height="1100"/></clipPath><clipPath id="clip32"><rect x="1631" y="0" width="1765" height="1100"/></clipPath></defs><g clip-path="url(#clip0)" transform="translate(-1627 4)"><rect x="1632" y="0" width="1764" height="1100" fill="#FFFFFF" fill-opacity="1"/><g clip-path="url(#clip1)"><path d="M1741.5 856.528 3004.5 856.528M1741.5 719.524 3004.5 719.524M1741.5 581.519 3004.5 581.519M1741.5 444.515 3004.5 444.515M1741.5 307.51 3004.5 307.51M1741.5 169.5 3004.5 169.5" stroke="#D9D9D9" stroke-width="3.4375" stroke-linecap="butt" stroke-linejoin="round" stroke-miterlimit="10" stroke-opacity="1" fill="none" fill-rule="nonzero"/></g><g clip-path="url(#clip2)"><path d="M1741.5 993.5 3004.5 993.5" stroke="#D9D9D9" stroke-width="3.4375" stroke-linecap="butt" stroke-linejoin="round" stroke-miterlimit="10" stroke-opacity="1" fill="none" fill-rule="evenodd"/></g><g clip-path="url(#clip3)"><path d="M1794 829 1899.06 650.021 2005.07 815.027 2110.07 733.024 2215.07 650.021 2320.08 623.02 2426.08 609 2531.08 650.021 2636.09 733.024 2741.09 664.022 2847.09 829 2952 705.023" stroke="#4472C4" stroke-width="10.3125" stroke-linecap="round" stroke-linejoin="round" stroke-miterlimit="10" stroke-opacity="1" fill="none" fill-rule="nonzero"/></g><g clip-path="url(#clip4)"><path d="M1805.17 828.5C1805.17 834.575 1800.24 839.499 1794.17 839.499 1788.09 839.499 1783.17 834.575 1783.17 828.5 1783.17 822.425 1788.09 817.5 1794.17 817.5 1800.24 817.5 1805.17 822.425 1805.17 828.5Z" stroke="#4472C4" stroke-width="3.4375" stroke-linecap="butt" stroke-linejoin="round" stroke-miterlimit="10" stroke-opacity="1" fill="#4472C4" fill-rule="nonzero" fill-opacity="1"/><path d="M1910.17 650.5C1910.17 656.574 1905.24 661.499 1899.17 661.499 1893.09 661.499 1888.17 656.574 1888.17 650.5 1888.17 644.425 1893.09 639.5 1899.17 639.5 1905.24 639.5 1910.17 644.425 1910.17 650.5Z" stroke="#4472C4" stroke-width="3.4375" stroke-linecap="butt" stroke-linejoin="round" stroke-miterlimit="10" stroke-opacity="1" fill="#4472C4" fill-rule="nonzero" fill-opacity="1"/><path d="M2015.17 815.5C2015.17 821.574 2010.24 826.499 2004.17 826.499 1998.09 826.499 1993.17 821.574 1993.17 815.5 1993.17 809.425 1998.09 804.5 2004.17 804.5 2010.24 804.5 2015.17 809.425 2015.17 815.5Z" stroke="#4472C4" stroke-width="3.4375" stroke-linecap="butt" stroke-linejoin="round" stroke-miterlimit="10" stroke-opacity="1" fill="#4472C4" fill-rule="nonzero" fill-opacity="1"/><path d="M2120.17 732.5C2120.17 738.575 2115.24 743.499 2109.17 743.499 2103.09 743.499 2098.17 738.575 2098.17 732.5 2098.17 726.425 2103.09 721.5 2109.17 721.5 2115.24 721.5 2120.17 726.425 2120.17 732.5Z" stroke="#4472C4" stroke-width="3.4375" stroke-linecap="butt" stroke-linejoin="round" stroke-miterlimit="10" stroke-opacity="1" fill="#4472C4" fill-rule="nonzero" fill-opacity="1"/><path d="M2226.17 650.5C2226.17 656.574 2221.24 661.499 2215.17 661.499 2209.09 661.499 2204.17 656.574 2204.17 650.5 2204.17 644.425 2209.09 639.5 2215.17 639.5 2221.24 639.5 2226.17 644.425 2226.17 650.5Z" stroke="#4472C4" stroke-width="3.4375" stroke-linecap="butt" stroke-linejoin="round" stroke-miterlimit="10" stroke-opacity="1" fill="#4472C4" fill-rule="nonzero" fill-opacity="1"/><path d="M2331.17 623.5C2331.17 629.575 2326.24 634.499 2320.17 634.499 2314.09 634.499 2309.17 629.575 2309.17 623.5 2309.17 617.425 2314.09 612.5 2320.17 612.5 2326.24 612.5 2331.17 617.425 2331.17 623.5Z" stroke="#4472C4" stroke-width="3.4375" stroke-linecap="butt" stroke-linejoin="round" stroke-miterlimit="10" stroke-opacity="1" fill="#4472C4" fill-rule="nonzero" fill-opacity="1"/><path d="M2436.17 609.5C2436.17 615.575 2431.24 620.499 2425.17 620.499 2419.09 620.499 2414.17 615.575 2414.17 609.5 2414.17 603.425 2419.09 598.5 2425.17 598.5 2431.24 598.5 2436.17 603.425 2436.17 609.5Z" stroke="#4472C4" stroke-width="3.4375" stroke-linecap="butt" stroke-linejoin="round" stroke-miterlimit="10" stroke-opacity="1" fill="#4472C4" fill-rule="nonzero" fill-opacity="1"/><path d="M2542.17 650.5C2542.17 656.574 2537.24 661.499 2531.17 661.499 2525.09 661.499 2520.17 656.574 2520.17 650.5 2520.17 644.425 2525.09 639.5 2531.17 639.5 2537.24 639.5 2542.17 644.425 2542.17 650.5Z" stroke="#4472C4" stroke-width="3.4375" stroke-linecap="butt" stroke-linejoin="round" stroke-miterlimit="10" stroke-opacity="1" fill="#4472C4" fill-rule="nonzero" fill-opacity="1"/><path d="M2647.17 732.5C2647.17 738.575 2642.24 743.499 2636.17 743.499 2630.09 743.499 2625.17 738.575 2625.17 732.5 2625.17 726.425 2630.09 721.5 2636.17 721.5 2642.24 721.5 2647.17 726.425 2647.17 732.5Z" stroke="#4472C4" stroke-width="3.4375" stroke-linecap="butt" stroke-linejoin="round" stroke-miterlimit="10" stroke-opacity="1" fill="#4472C4" fill-rule="nonzero" fill-opacity="1"/><path d="M2752.17 664.5C2752.17 670.575 2747.24 675.499 2741.17 675.499 2735.09 675.499 2730.17 670.575 2730.17 664.5 2730.17 658.425 2735.09 653.5 2741.17 653.5 2747.24 653.5 2752.17 658.425 2752.17 664.5Z" stroke="#4472C4" stroke-width="3.4375" stroke-linecap="butt" stroke-linejoin="round" stroke-miterlimit="10" stroke-opacity="1" fill="#4472C4" fill-rule="nonzero" fill-opacity="1"/><path d="M2857.17 828.5C2857.17 834.575 2852.24 839.499 2846.17 839.499 2840.09 839.499 2835.17 834.575 2835.17 828.5 2835.17 822.425 2840.09 817.5 2846.17 817.5 2852.24 817.5 2857.17 822.425 2857.17 828.5Z" stroke="#4472C4" stroke-width="3.4375" stroke-linecap="butt" stroke-linejoin="round" stroke-miterlimit="10" stroke-opacity="1" fill="#4472C4" fill-rule="nonzero" fill-opacity="1"/><path d="M2963.17 705.5C2963.17 711.574 2958.24 716.499 2952.17 716.499 2946.09 716.499 2941.17 711.574 2941.17 705.5 2941.17 699.425 2946.09 694.5 2952.17 694.5 2958.24 694.5 2963.17 699.425 2963.17 705.5Z" stroke="#4472C4" stroke-width="3.4375" stroke-linecap="butt" stroke-linejoin="round" stroke-miterlimit="10" stroke-opacity="1" fill="#4472C4" fill-rule="nonzero" fill-opacity="1"/></g><g clip-path="url(#clip5)"><path d="M1794 623.02 1899.06 513.017 2005.07 637.021 2110.07 609.02 2215.07 266 2320.08 335.011 2426.08 390.013 2531.08 417.014 2636.09 554.018 2741.09 513.017 2847.09 650.021 2952 760" stroke="#ED7D31" stroke-width="10.3125" stroke-linecap="round" stroke-linejoin="round" stroke-miterlimit="10" stroke-opacity="1" fill="none" fill-rule="nonzero"/></g><g clip-path="url(#clip6)"><path d="M1805.17 623.5C1805.17 629.575 1800.24 634.499 1794.17 634.499 1788.09 634.499 1783.17 629.575 1783.17 623.5 1783.17 617.425 1788.09 612.5 1794.17 612.5 1800.24 612.5 1805.17 617.425 1805.17 623.5Z" stroke="#ED7D31" stroke-width="3.4375" stroke-linecap="butt" stroke-linejoin="round" stroke-miterlimit="10" stroke-opacity="1" fill="#ED7D31" fill-rule="nonzero" fill-opacity="1"/><path d="M1910.17 513.5C1910.17 519.575 1905.24 524.499 1899.17 524.499 1893.09 524.499 1888.17 519.575 1888.17 513.5 1888.17 507.425 1893.09 502.5 1899.17 502.5 1905.24 502.5 1910.17 507.425 1910.17 513.5Z" stroke="#ED7D31" stroke-width="3.4375" stroke-linecap="butt" stroke-linejoin="round" stroke-miterlimit="10" stroke-opacity="1" fill="#ED7D31" fill-rule="nonzero" fill-opacity="1"/><path d="M2015.17 636.5C2015.17 642.575 2010.24 647.499 2004.17 647.499 1998.09 647.499 1993.17 642.575 1993.17 636.5 1993.17 630.425 1998.09 625.5 2004.17 625.5 2010.24 625.5 2015.17 630.425 2015.17 636.5Z" stroke="#ED7D31" stroke-width="3.4375" stroke-linecap="butt" stroke-linejoin="round" stroke-miterlimit="10" stroke-opacity="1" fill="#ED7D31" fill-rule="nonzero" fill-opacity="1"/><path d="M2120.17 609.5C2120.17 615.575 2115.24 620.499 2109.17 620.499 2103.09 620.499 2098.17 615.575 2098.17 609.5 2098.17 603.425 2103.09 598.5 2109.17 598.5 2115.24 598.5 2120.17 603.425 2120.17 609.5Z" stroke="#ED7D31" stroke-width="3.4375" stroke-linecap="butt" stroke-linejoin="round" stroke-miterlimit="10" stroke-opacity="1" fill="#ED7D31" fill-rule="nonzero" fill-opacity="1"/><path d="M2226.17 266.5C2226.17 272.574 2221.24 277.499 2215.17 277.499 2209.09 277.499 2204.17 272.574 2204.17 266.5 2204.17 260.425 2209.09 255.5 2215.17 255.5 2221.24 255.5 2226.17 260.425 2226.17 266.5Z" stroke="#ED7D31" stroke-width="3.4375" stroke-linecap="butt" stroke-linejoin="round" stroke-miterlimit="10" stroke-opacity="1" fill="#ED7D31" fill-rule="nonzero" fill-opacity="1"/><path d="M2331.17 334.5C2331.17 340.575 2326.24 345.499 2320.17 345.499 2314.09 345.499 2309.17 340.575 2309.17 334.5 2309.17 328.425 2314.09 323.5 2320.17 323.5 2326.24 323.5 2331.17 328.425 2331.17 334.5Z" stroke="#ED7D31" stroke-width="3.4375" stroke-linecap="butt" stroke-linejoin="round" stroke-miterlimit="10" stroke-opacity="1" fill="#ED7D31" fill-rule="nonzero" fill-opacity="1"/><path d="M2436.17 389.5C2436.17 395.575 2431.24 400.499 2425.17 400.499 2419.09 400.499 2414.17 395.575 2414.17 389.5 2414.17 383.425 2419.09 378.5 2425.17 378.5 2431.24 378.5 2436.17 383.425 2436.17 389.5Z" stroke="#ED7D31" stroke-width="3.4375" stroke-linecap="butt" stroke-linejoin="round" stroke-miterlimit="10" stroke-opacity="1" fill="#ED7D31" fill-rule="nonzero" fill-opacity="1"/><path d="M2542.17 417.5C2542.17 423.575 2537.24 428.499 2531.17 428.499 2525.09 428.499 2520.17 423.575 2520.17 417.5 2520.17 411.425 2525.09 406.5 2531.17 406.5 2537.24 406.5 2542.17 411.425 2542.17 417.5Z" stroke="#ED7D31" stroke-width="3.4375" stroke-linecap="butt" stroke-linejoin="round" stroke-miterlimit="10" stroke-opacity="1" fill="#ED7D31" fill-rule="nonzero" fill-opacity="1"/><path d="M2647.17 554.5C2647.17 560.575 2642.24 565.499 2636.17 565.499 2630.09 565.499 2625.17 560.575 2625.17 554.5 2625.17 548.425 2630.09 543.5 2636.17 543.5 2642.24 543.5 2647.17 548.425 2647.17 554.5Z" stroke="#ED7D31" stroke-width="3.4375" stroke-linecap="butt" stroke-linejoin="round" stroke-miterlimit="10" stroke-opacity="1" fill="#ED7D31" fill-rule="nonzero" fill-opacity="1"/><path d="M2752.17 513.5C2752.17 519.575 2747.24 524.499 2741.17 524.499 2735.09 524.499 2730.17 519.575 2730.17 513.5 2730.17 507.425 2735.09 502.5 2741.17 502.5 2747.24 502.5 2752.17 507.425 2752.17 513.5Z" stroke="#ED7D31" stroke-width="3.4375" stroke-linecap="butt" stroke-linejoin="round" stroke-miterlimit="10" stroke-opacity="1" fill="#ED7D31" fill-rule="nonzero" fill-opacity="1"/><path d="M2857.17 650.5C2857.17 656.574 2852.24 661.499 2846.17 661.499 2840.09 661.499 2835.17 656.574 2835.17 650.5 2835.17 644.425 2840.09 639.5 2846.17 639.5 2852.24 639.5 2857.17 644.425 2857.17 650.5Z" stroke="#ED7D31" stroke-width="3.4375" stroke-linecap="butt" stroke-linejoin="round" stroke-miterlimit="10" stroke-opacity="1" fill="#ED7D31" fill-rule="nonzero" fill-opacity="1"/><path d="M2963.17 760.5C2963.17 766.574 2958.24 771.499 2952.17 771.499 2946.09 771.499 2941.17 766.574 2941.17 760.5 2941.17 754.425 2946.09 749.5 2952.17 749.5 2958.24 749.5 2963.17 754.425 2963.17 760.5Z" stroke="#ED7D31" stroke-width="3.4375" stroke-linecap="butt" stroke-linejoin="round" stroke-miterlimit="10" stroke-opacity="1" fill="#ED7D31" fill-rule="nonzero" fill-opacity="1"/></g><g clip-path="url(#clip7)"><text fill="#595959" fill-opacity="1" font-family="Calibri,Calibri_MSFontService,sans-serif" font-style="normal" font-variant="normal" font-weight="400" font-stretch="normal" font-size="41" text-anchor="start" direction="ltr" writing-mode="lr-tb" unicode-bidi="normal" text-decoration="none" transform="matrix(1 0 0 1 1682.36 1004)">0</text></g><g clip-path="url(#clip8)"><text fill="#595959" fill-opacity="1" font-family="Calibri,Calibri_MSFontService,sans-serif" font-style="normal" font-variant="normal" font-weight="400" font-stretch="normal" font-size="41" text-anchor="start" direction="ltr" writing-mode="lr-tb" unicode-bidi="normal" text-decoration="none" transform="matrix(1 0 0 1 1661.46 867)">10</text></g><g clip-path="url(#clip9)"><text fill="#595959" fill-opacity="1" font-family="Calibri,Calibri_MSFontService,sans-serif" font-style="normal" font-variant="normal" font-weight="400" font-stretch="normal" font-size="41" text-anchor="start" direction="ltr" writing-mode="lr-tb" unicode-bidi="normal" text-decoration="none" transform="matrix(1 0 0 1 1661.46 730)">20</text></g><g clip-path="url(#clip10)"><text fill="#595959" fill-opacity="1" font-family="Calibri,Calibri_MSFontService,sans-serif" font-style="normal" font-variant="normal" font-weight="400" font-stretch="normal" font-size="41" text-anchor="start" direction="ltr" writing-mode="lr-tb" unicode-bidi="normal" text-decoration="none" transform="matrix(1 0 0 1 1661.46 592)">30</text></g><g clip-path="url(#clip11)"><text fill="#595959" fill-opacity="1" font-family="Calibri,Calibri_MSFontService,sans-serif" font-style="normal" font-variant="normal" font-weight="400" font-stretch="normal" font-size="41" text-anchor="start" direction="ltr" writing-mode="lr-tb" unicode-bidi="normal" text-decoration="none" transform="matrix(1 0 0 1 1661.46 455)">40</text></g><g clip-path="url(#clip12)"><text fill="#595959" fill-opacity="1" font-family="Calibri,Calibri_MSFontService,sans-serif" font-style="normal" font-variant="normal" font-weight="400" font-stretch="normal" font-size="41" text-anchor="start" direction="ltr" writing-mode="lr-tb" unicode-bidi="normal" text-decoration="none" transform="matrix(1 0 0 1 1661.46 318)">50</text></g><g clip-path="url(#clip13)"><text fill="#595959" fill-opacity="1" font-family="Calibri,Calibri_MSFontService,sans-serif" font-style="normal" font-variant="normal" font-weight="400" font-stretch="normal" font-size="41" text-anchor="start" direction="ltr" writing-mode="lr-tb" unicode-bidi="normal" text-decoration="none" transform="matrix(1 0 0 1 1661.46 181)">60</text></g><g clip-path="url(#clip14)"><text fill="#595959" fill-opacity="1" font-family="Calibri,Calibri_MSFontService,sans-serif" font-style="normal" font-variant="normal" font-weight="400" font-stretch="normal" font-size="41" text-anchor="start" direction="ltr" writing-mode="lr-tb" unicode-bidi="normal" text-decoration="none" transform="matrix(1 0 0 1 1766.85 1059)">Jan</text></g><g clip-path="url(#clip15)"><text fill="#595959" fill-opacity="1" font-family="Calibri,Calibri_MSFontService,sans-serif" font-style="normal" font-variant="normal" font-weight="400" font-stretch="normal" font-size="41" text-anchor="start" direction="ltr" writing-mode="lr-tb" unicode-bidi="normal" text-decoration="none" transform="matrix(1 0 0 1 1868.83 1059)">Feb</text></g><g clip-path="url(#clip16)"><text fill="#595959" fill-opacity="1" font-family="Calibri,Calibri_MSFontService,sans-serif" font-style="normal" font-variant="normal" font-weight="400" font-stretch="normal" font-size="41" text-anchor="start" direction="ltr" writing-mode="lr-tb" unicode-bidi="normal" text-decoration="none" transform="matrix(1 0 0 1 1969.97 1059)">Mar</text></g><g clip-path="url(#clip17)"><text fill="#595959" fill-opacity="1" font-family="Calibri,Calibri_MSFontService,sans-serif" font-style="normal" font-variant="normal" font-weight="400" font-stretch="normal" font-size="41" text-anchor="start" direction="ltr" writing-mode="lr-tb" unicode-bidi="normal" text-decoration="none" transform="matrix(1 0 0 1 2079.97 1059)">Apr</text></g><g clip-path="url(#clip18)"><text fill="#595959" fill-opacity="1" font-family="Calibri,Calibri_MSFontService,sans-serif" font-style="normal" font-variant="normal" font-weight="400" font-stretch="normal" font-size="41" text-anchor="start" direction="ltr" writing-mode="lr-tb" unicode-bidi="normal" text-decoration="none" transform="matrix(1 0 0 1 2178.37 1059)">May</text></g><g clip-path="url(#clip19)"><text fill="#595959" fill-opacity="1" font-family="Calibri,Calibri_MSFontService,sans-serif" font-style="normal" font-variant="normal" font-weight="400" font-stretch="normal" font-size="41" text-anchor="start" direction="ltr" writing-mode="lr-tb" unicode-bidi="normal" text-decoration="none" transform="matrix(1 0 0 1 2292.23 1059)">Jun</text></g><g clip-path="url(#clip20)"><text fill="#595959" fill-opacity="1" font-family="Calibri,Calibri_MSFontService,sans-serif" font-style="normal" font-variant="normal" font-weight="400" font-stretch="normal" font-size="41" text-anchor="start" direction="ltr" writing-mode="lr-tb" unicode-bidi="normal" text-decoration="none" transform="matrix(1 0 0 1 2403.61 1059)">Jul</text></g><g clip-path="url(#clip21)"><text fill="#595959" fill-opacity="1" font-family="Calibri,Calibri_MSFontService,sans-serif" font-style="normal" font-variant="normal" font-weight="400" font-stretch="normal" font-size="41" text-anchor="start" direction="ltr" writing-mode="lr-tb" unicode-bidi="normal" text-decoration="none" transform="matrix(1 0 0 1 2498.54 1059)">Aug</text></g><g clip-path="url(#clip22)"><text fill="#595959" fill-opacity="1" font-family="Calibri,Calibri_MSFontService,sans-serif" font-style="normal" font-variant="normal" font-weight="400" font-stretch="normal" font-size="41" text-anchor="start" direction="ltr" writing-mode="lr-tb" unicode-bidi="normal" text-decoration="none" transform="matrix(1 0 0 1 2605.72 1059)">Sep</text></g><g clip-path="url(#clip23)"><text fill="#595959" fill-opacity="1" font-family="Calibri,Calibri_MSFontService,sans-serif" font-style="normal" font-variant="normal" font-weight="400" font-stretch="normal" font-size="41" text-anchor="start" direction="ltr" writing-mode="lr-tb" unicode-bidi="normal" text-decoration="none" transform="matrix(1 0 0 1 2712.28 1059)">Oct</text></g><g clip-path="url(#clip24)"><text fill="#595959" fill-opacity="1" font-family="Calibri,Calibri_MSFontService,sans-serif" font-style="normal" font-variant="normal" font-weight="400" font-stretch="normal" font-size="41" text-anchor="start" direction="ltr" writing-mode="lr-tb" unicode-bidi="normal" text-decoration="none" transform="matrix(1 0 0 1 2813.33 1059)">Nov</text></g><g clip-path="url(#clip25)"><text fill="#595959" fill-opacity="1" font-family="Calibri,Calibri_MSFontService,sans-serif" font-style="normal" font-variant="normal" font-weight="400" font-stretch="normal" font-size="41" text-anchor="start" direction="ltr" writing-mode="lr-tb" unicode-bidi="normal" text-decoration="none" transform="matrix(1 0 0 1 2920.44 1059)">Dec</text></g><g clip-path="url(#clip26)"><text fill="#595959" fill-opacity="1" font-family="Calibri,Calibri_MSFontService,sans-serif" font-style="normal" font-variant="normal" font-weight="400" font-stretch="normal" font-size="64" text-anchor="start" direction="ltr" writing-mode="lr-tb" unicode-bidi="normal" text-decoration="none" transform="matrix(1 0 0 1 2160.42 95)">Monthly US Play Outcomes</text></g><g clip-path="url(#clip27)"><path d="M3076 573 3164 573" stroke="#4472C4" stroke-width="10.3125" stroke-linecap="round" stroke-linejoin="round" stroke-miterlimit="10" stroke-opacity="1" fill="none" fill-rule="evenodd"/></g><g clip-path="url(#clip28)"><path d="M3131 572.499C3131 578.31 3126.07 583.021 3120 583.021 3113.93 583.021 3109 578.31 3109 572.499 3109 566.689 3113.93 561.978 3120 561.978 3126.07 561.978 3131 566.689 3131 572.499Z" stroke="#4472C4" stroke-width="3.4375" stroke-linecap="butt" stroke-linejoin="round" stroke-miterlimit="10" stroke-opacity="1" fill="#4472C4" fill-rule="nonzero" fill-opacity="1"/></g><g clip-path="url(#clip29)"><text fill="#595959" fill-opacity="1" font-family="Calibri,Calibri_MSFontService,sans-serif" font-style="normal" font-variant="normal" font-weight="400" font-stretch="normal" font-size="41" text-anchor="start" direction="ltr" writing-mode="lr-tb" unicode-bidi="normal" text-decoration="none" transform="matrix(1 0 0 1 3173.75 583)">failed</text></g><g clip-path="url(#clip30)"><path d="M3076 650 3164 650" stroke="#ED7D31" stroke-width="10.3125" stroke-linecap="round" stroke-linejoin="round" stroke-miterlimit="10" stroke-opacity="1" fill="none" fill-rule="evenodd"/></g><g clip-path="url(#clip31)"><path d="M3131 649.999C3131 656.075 3126.07 660.999 3120 660.999 3113.93 660.999 3109 656.075 3109 649.999 3109 643.924 3113.93 639 3120 639 3126.07 639 3131 643.924 3131 649.999Z" stroke="#ED7D31" stroke-width="3.4375" stroke-linecap="butt" stroke-linejoin="round" stroke-miterlimit="10" stroke-opacity="1" fill="#ED7D31" fill-rule="nonzero" fill-opacity="1"/></g><g clip-path="url(#clip32)"><text fill="#595959" fill-opacity="1" font-family="Calibri,Calibri_MSFontService,sans-serif" font-style="normal" font-variant="normal" font-weight="400" font-stretch="normal" font-size="41" text-anchor="start" direction="ltr" writing-mode="lr-tb" unicode-bidi="normal" text-decoration="none" transform="matrix(1 0 0 1 3173.75 661)">successful</text></g><rect x="1632.5" y="0.499836" width="1764" height="1100" stroke="#D9D9D9" stroke-width="3.4375" stroke-linecap="butt" stroke-linejoin="round" stroke-miterlimit="10" stroke-opacity="1" fill="none"/></g></svg>